# xmcd CD database file
#
# Track frame offsets:
#	150
#	15761
#	41161
#	58347
#	71540
#	97417
#	117837
#	128928
#	147973
#	171315
#	190932
#	210644
#	229151
#	246812
#
# Disc length: 3627 seconds
#
# Revision: 0
# Processed by: cddbd v1.5.2PL0 Copyright (c) Steve Scherf et al.
# Submitted via: CDex 1.70beta2
#
DISCID=d00e290e
DTITLE=Jazz Clan - Sidney Bechet Memory - Sweaty Dear
DYEAR=2005
DGENRE=Jazz
TTITLE0=01-Sweaty Dear
TTITLE1=02-Bechet's Fantasy
TTITLE2=03-Marchand de Poissons
TTITLE3=04-Ballin' The Jack
TTITLE4=05-Buggle Call Rag
TTITLE5=06-Mood Indigo
TTITLE6=07-Les Oignons
TTITLE7=08-Out Of The Gallion
TTITLE8=09-Happy Go, Lucky Blues
TTITLE9=10-She's Funny That Way
TTITLE10=11-After You've Gone
TTITLE11=12-Squeeze Me
TTITLE12=13-Out Of Nowhere
TTITLE13=14-China Boy
EXTD=YEAR: 2005
EXTT0=
EXTT1=
EXTT2=
EXTT3=
EXTT4=
EXTT5=
EXTT6=
EXTT7=
EXTT8=
EXTT9=
EXTT10=
EXTT11=
EXTT12=
EXTT13=
PLAYORDER=
